# Export of 
# from Aaro4130 OBJ Exporter v2.0
mtllib crater01.mtl
g Crater01
v 3.413148 0 -0.1345069
v 2.599354 0.1262977 -0.03175446
v 2.482135 0.212284 -0.6683423
v 3.078464 0 -0.8304032
v 2.207742 0.1262977 -1.279921
v 2.963536 0 -1.758474
v 1.806148 0.1262978 -1.808607
v 2.481891 0 -2.417958
v 1.269056 0.1262978 -2.180573
v 1.464057 0 -2.596006
v 0.6602411 0.1262978 -2.470148
v 0.8039634 0 -3.023931
v 0.01243398 0.1262978 -2.625301
v 0.03024924 0 -3.264808
v -0.6436666 0.1262978 -2.46633
v -0.7421462 0 -2.968065
v 3.027529 0 0.7280872
v 2.400903 0.2212222 -0.6610925
v 2.032824 0.1352359 -1.160213
v 1.581619 0 -0.8371049
v 1.655286 0.1352359 -1.65778
v 1.16991 0.1352359 -2.010134
v 0.5826352 0.1352359 -2.273498
v 0.0118407 0.1352359 -2.476583
v 0.1198271 0 -1.6494
v -0.617735 0.1352359 -2.335119
v -0.280196 0 -1.651787
v 3.032496 0 1.649597
v 2.74427 0.2105714 0.679487
v 2.617855 0.1262978 1.349779
v 2.669188 0 2.324037
v 2.072972 0.04146682 1.905808
v 1.510124 0 2.604126
v 1.312765 0.1262978 2.24473
v 0.9087659 0 3.149977
v 0.7001613 0.1262978 2.521808
v 0.1025821 0 3.238263
v 0.04016104 0.1262976 2.570541
v -0.6541892 0 2.915926
v -0.6380391 0.1262978 2.399896
v -1.418661 0 3.296525
v -1.292529 0.1884956 2.324471
v -1.219239 0.1961337 2.150344
v -1.701212 0.1352359 1.701195
v -1.813229 0.1262978 1.812014
v -2.088356 0 2.230514
v -2.8001 0 1.713078
v -2.276159 0.1262978 1.34045
v -2.784647 0 0.7298198
v -2.4503 0.1262977 0.6557642
v -3.382789 0 -0.04391514
v -2.599361 0.1871955 -0.01056412
v -3.45219 0 -0.5478134
v -2.541136 0.1262977 -0.6793717
v -2.676066 0 -1.563845
v -2.21517 0.2510963 -1.306396
v -2.212053 0 -2.891099
v -1.883659 0.1262978 -1.979922
v -1.913096 0 -3.182139
v -1.330217 0.1262978 -2.331556
v -0.7421462 0 -2.968065
v -0.6436666 0.1262978 -2.46633
v -0.617735 0.1352359 -2.335119
v -1.260053 0.1352359 -2.20533
v -1.76744 0.1352359 -1.851674
v -2.0439 0.2600345 -1.217967
v -2.380205 0.1352359 -0.6372243
v -2.435322 0.1961337 -0.007435455
v -2.325591 0.1352359 0.6234
v -2.112022 0.1352359 1.229388
v -1.674388 0 3.176735
v 2.508505 0.2195095 0.6293591
v 2.360898 0.1352358 1.258536
v 1.845294 0.05040497 1.774269
v 1.227364 0.1352359 2.116466
v 0.6387036 0.1352359 2.349177
v 0.03127301 0.1352359 2.34433
v -0.5905874 0.1352359 2.220613
v 2.393332 0.1352359 -0.04088699
v 2.393332 0.1352359 -0.04088699
v 1.820661 -1.907349E-08 -0.1272873
v 1.83822 0 -0.5532309
v 2.400903 0.2212222 -0.6610925
v 1.581619 0 -0.8371049
v 2.508505 0.2195095 0.6293591
v 1.581619 0 -0.8371049
v 1.164866 0 -1.145776
v 2.032824 0.1352359 -1.160213
v 1.164866 0 -1.145776
v 1.655286 0.1352359 -1.65778
v 0.8791161 0 -1.426935
v 1.16991 0.1352359 -2.010134
v 0.4491423 0 -1.568653
v 0.5826352 0.1352359 -2.273498
v 0.5826352 0.1352359 -2.273498
v 0.4491423 0 -1.568653
v 0.1198271 0 -1.6494
v 1.674106 -3.814697E-08 0.4113261
v 1.674106 -3.814697E-08 0.4113261
v -0.280196 0 -1.651787
v -1.497315 -3.814697E-08 0.6131071
v -1.271537 0 0.9435756
v -1.625583 -1.907349E-08 0.05441619
v 1.674106 -3.814697E-08 0.4113261
v -1.582266 0 -0.457014
v -1.126152 0 -1.387104
v -1.233993 0 -0.9354307
v 1.674106 -3.814697E-08 0.4113261
v -0.7123207 0 -1.655737
v 1.674106 -3.814697E-08 0.4113261
v -0.280196 0 -1.651787
v 1.674106 -3.814697E-08 0.4113261
v 0.0118407 0.1352359 -2.476583
v 0.1198271 0 -1.6494
v 1.674106 -3.814697E-08 0.4113261
v -1.029006 0 1.208632
v -0.7789879 0 1.507354
v -0.617735 0.1352359 -2.335119
v -0.280196 0 -1.651787
v -0.7123207 0 -1.655737
v -1.260053 0.1352359 -2.20533
v -0.7123207 0 -1.655737
v -1.126152 0 -1.387104
v -1.76744 0.1352359 -1.851674
v -1.233993 0 -0.9354307
v -2.0439 0.2600345 -1.217967
v -1.582266 0 -0.457014
v -2.380205 0.1352359 -0.6372243
v -1.625583 -1.907349E-08 0.05441619
v -2.435322 0.1961337 -0.007435455
v -1.497315 -3.814697E-08 0.6131071
v -2.325591 0.1352359 0.6234
v -1.271537 0 0.9435756
v -2.112022 0.1352359 1.229388
v -1.029006 0 1.208632
v -1.701212 0.1352359 1.701195
v -0.7789879 0 1.507354
v -1.219239 0.1961337 2.150344
v -0.4661108 0 1.740798
v -1.219239 0.1961337 2.150344
v -0.4661108 0 1.740798
v -0.5905874 0.1352359 2.220613
v 0.1691233 0 1.600225
v 1.674106 -3.814697E-08 0.4113261
v 1.674106 -3.814697E-08 0.4113261
v 0.5215561 0 1.727007
v 1.674106 -3.814697E-08 0.4113261
v 0.8428784 0 1.585075
v 1.674106 -3.814697E-08 0.4113261
v 1.19087 0 1.326262
v 1.674106 -3.814697E-08 0.4113261
v 1.41069 0 0.9874758
v 1.83822 0 -0.5532309
v 1.581619 0 -0.8371049
v -0.5905874 0.1352359 2.220613
v 0.1691233 0 1.600225
v 0.03127301 0.1352359 2.34433
v 0.5215561 0 1.727007
v 0.6387036 0.1352359 2.349177
v 0.8428784 0 1.585075
v 1.227364 0.1352359 2.116466
v 1.19087 0 1.326262
v 1.845294 0.05040497 1.774269
v 1.41069 0 0.9874758
v 2.360898 0.1352358 1.258536
v 1.674106 -3.814697E-08 0.4113261
v 2.360898 0.1352358 1.258536
v 1.674106 -3.814697E-08 0.4113261
v 2.508505 0.2195095 0.6293591
v 1.674106 -3.814697E-08 0.4113261
v 1.820661 -1.907349E-08 -0.1272873
v 1.83822 0 -0.5532309
v 1.581619 0 -0.8371049
v 1.164866 0 -1.145776
v 1.164866 0 -1.145776
v 1.674106 -3.814697E-08 0.4113261
v 0.8791161 0 -1.426935
v 0.8791161 0 -1.426935
v 1.674106 -3.814697E-08 0.4113261
v 0.4491423 0 -1.568653
v -0.7789879 0 1.507354
v 1.674106 -3.814697E-08 0.4113261
v -0.4661108 0 1.740798
vn 0.1495893 0.5575961 -0.006550166
vn 0.0932783 0.5696924 -0.009115176
vn 0.07435723 0.572322 -0.01587232
vn 0.1231567 0.5630255 -0.03417729
vn 0.05210328 0.5726442 -0.05193379
vn 0.08523391 0.5685472 -0.05312767
vn 0.03563361 0.5739476 -0.05145593
vn 0.05437254 0.570407 -0.07080101
vn 0.03379903 0.5720137 -0.07064903
vn 0.05291102 0.5634287 -0.114376
vn 0.03195789 0.5715052 -0.07545738
vn 0.04822893 0.5630602 -0.118197
vn -0.002306668 0.5714821 -0.08207424
vn -0.001705864 0.5650332 -0.1186083
vn -0.01234866 0.5722637 -0.07546639
vn -0.01598345 0.5655986 -0.1147869
vn 0.2004287 0.5410528 0.02058008
vn -0.0591168 0.5741805 0.01246304
vn -0.05960064 0.5740939 0.01404386
vn -0.06442209 0.5721971 0.04211517
vn -0.02693787 0.5759471 0.02987716
vn -0.01983055 0.5760095 0.0339592
vn -0.01280372 0.5760239 0.03695625
vn -0.00233636 0.5769277 0.02196178
vn -0.006694785 0.5748389 0.05337406
vn 0.002805839 0.5762067 0.03621112
vn 0.006668166 0.5749591 0.05206656
vn 0.1131424 0.5626263 0.06311731
vn 0.1161063 0.5653442 0.0154462
vn 0.08540712 0.5671877 0.06585603
vn 0.04568804 0.5709808 0.07229713
vn 0.03077974 0.5735238 0.05879112
vn 0.0624188 0.5664338 0.09268207
vn 0.05012386 0.5733864 0.04526483
vn 0.04055736 0.5652521 0.1103565
vn 0.02635377 0.5720348 0.07358711
vn -0.01122217 0.565873 0.1139962
vn -0.0111615 0.5722978 0.0753922
vn 0.006095437 0.5640311 0.1231467
vn 0.01682679 0.5718586 0.07763898
vn -0.004718562 0.566209 0.1127762
vn -0.03404462 0.5727483 0.06429392
vn 0.02256162 0.5758427 -0.03506516
vn 0.01017596 0.5760872 -0.03678776
vn -0.07542229 0.5706056 0.04532159
vn -0.1156232 0.560116 0.07896009
vn -0.1142658 0.5625304 0.06193728
vn -0.08186767 0.5702673 0.03776542
vn -0.1532463 0.5533639 0.06031054
vn -0.09326038 0.5678595 0.04659803
vn -0.1220326 0.5640929 0.01550903
vn -0.08351105 0.5708749 0.02147352
vn -0.1202335 0.5634208 -0.03787124
vn -0.09403969 0.5692551 -0.02094101
vn -0.1411005 0.5551144 -0.0726082
vn -0.07679937 0.5709409 -0.03823239
vn -0.06794953 0.5694407 -0.06673403
vn -0.05775258 0.5702128 -0.06967978
vn -0.02675887 0.5715633 -0.07702407
vn -0.01531635 0.5737389 -0.0626286
vn -0.01598345 0.5655986 -0.1147869
vn -0.01234866 0.5722637 -0.07546639
vn 0.002805839 0.5762067 0.03621112
vn 0.01101447 0.576771 0.02339254
vn 0.0521083 0.5745685 -0.02211723
vn 0.05798888 0.5735365 0.03203963
vn 0.02326539 0.5760307 0.03131587
vn 0.03929587 0.5760096 -0.00145897
vn 0.03285279 0.5762894 0.01202694
vn 0.01998308 0.5768392 -0.01380349
vn -0.08052737 0.5644869 0.09057163
vn -0.04259365 0.5756434 -0.01239803
vn -0.04364843 0.5739521 0.04480116
vn -0.004403842 0.5772302 -0.01092089
vn 0.004312088 0.5752835 -0.04861731
vn -0.003488151 0.5763108 -0.03445338
vn 0.001606055 0.5757594 -0.0428015
vn 0.03091252 0.5744532 -0.04879871
vn -0.0646322 0.5737209 -0.0005735384
vn -0.0646322 0.5737209 -0.0005735384
vn -0.08218374 0.5714709 -0.0004395804
vn -0.1049431 0.5666201 0.03552396
vn -0.0591168 0.5741805 0.01246304
vn -0.06442209 0.5721971 0.04211517
vn -0.04259365 0.5756434 -0.01239803
vn -0.06442209 0.5721971 0.04211517
vn -0.03805594 0.5745851 0.04167713
vn -0.05960064 0.5740939 0.01404386
vn -0.03805594 0.5745851 0.04167713
vn -0.02693787 0.5759471 0.02987716
vn -0.03326851 0.5737274 0.05534724
vn -0.01983055 0.5760095 0.0339592
vn -0.01901112 0.5746182 0.05278086
vn -0.01280372 0.5760239 0.03695625
vn -0.01280372 0.5760239 0.03695625
vn -0.01901112 0.5746182 0.05278086
vn -0.006694785 0.5748389 0.05337406
vn -0.06450245 0.5736428 -0.01032591
vn -0.06450245 0.5736428 -0.01032591
vn 0.006668166 0.5749591 0.05206656
vn 0.05417658 0.5746686 -0.01241932
vn 0.03984672 0.5752961 -0.02792729
vn 0.06432446 0.5737469 -0.003193399
vn -0.06450245 0.5736428 -0.01032591
vn 0.06425047 0.5726582 0.03560577
vn 0.06686437 0.5729811 0.02356193
vn 0.05737815 0.5739607 0.02470314
vn -0.06450245 0.5736428 -0.01032591
vn 0.01754963 0.5737873 0.06159179
vn -0.06450245 0.5736428 -0.01032591
vn 0.006668166 0.5749591 0.05206656
vn -0.06450245 0.5736428 -0.01032591
vn -0.00233636 0.5769277 0.02196178
vn -0.006694785 0.5748389 0.05337406
vn -0.06450245 0.5736428 -0.01032591
vn 0.03221532 0.5749161 -0.04203442
vn 0.03672513 0.5728351 -0.06200368
vn 0.002805839 0.5762067 0.03621112
vn 0.006668166 0.5749591 0.05206656
vn 0.01754963 0.5737873 0.06159179
vn 0.01101447 0.576771 0.02339254
vn 0.01754963 0.5737873 0.06159179
vn 0.06686437 0.5729811 0.02356193
vn 0.0521083 0.5745685 -0.02211723
vn 0.05737815 0.5739607 0.02470314
vn 0.05798888 0.5735365 0.03203963
vn 0.06425047 0.5726582 0.03560577
vn 0.02326539 0.5760307 0.03131587
vn 0.06432446 0.5737469 -0.003193399
vn 0.03929587 0.5760096 -0.00145897
vn 0.05417658 0.5746686 -0.01241932
vn 0.03285279 0.5762894 0.01202694
vn 0.03984672 0.5752961 -0.02792729
vn 0.01998308 0.5768392 -0.01380349
vn 0.03221532 0.5749161 -0.04203442
vn 0.01017596 0.5760872 -0.03678776
vn 0.03672513 0.5728351 -0.06200368
vn 0.02256162 0.5758427 -0.03506516
vn 0.0235086 0.5712586 -0.08027628
vn 0.02256162 0.5758427 -0.03506516
vn 0.0235086 0.5712586 -0.08027628
vn 0.03091252 0.5744532 -0.04879871
vn 0.003143314 0.5752845 -0.04869546
vn -0.06450245 0.5736428 -0.01032591
vn -0.06450245 0.5736428 -0.01032591
vn -0.008172893 0.5730511 -0.06984972
vn -0.06450245 0.5736428 -0.01032591
vn -0.01575769 0.5743647 -0.0564818
vn -0.06450245 0.5736428 -0.01032591
vn -0.02004352 0.5762486 -0.02947913
vn -0.06450245 0.5736428 -0.01032591
vn -0.04537092 0.5755647 0.0002144349
vn -0.1049431 0.5666201 0.03552396
vn -0.06442209 0.5721971 0.04211517
vn 0.03091252 0.5744532 -0.04879871
vn 0.003143314 0.5752845 -0.04869546
vn 0.001606055 0.5757594 -0.0428015
vn -0.008172893 0.5730511 -0.06984972
vn -0.003488151 0.5763108 -0.03445338
vn -0.01575769 0.5743647 -0.0564818
vn 0.004312088 0.5752835 -0.04861731
vn -0.02004352 0.5762486 -0.02947913
vn -0.004403842 0.5772302 -0.01092089
vn -0.04537092 0.5755647 0.0002144349
vn -0.04364843 0.5739521 0.04480116
vn -0.06450245 0.5736428 -0.01032591
vn -0.04364843 0.5739521 0.04480116
vn -0.06450245 0.5736428 -0.01032591
vn -0.04259365 0.5756434 -0.01239803
vn -0.06450245 0.5736428 -0.01032591
vn -0.08218374 0.5714709 -0.0004395804
vn -0.1049431 0.5666201 0.03552396
vn -0.06442209 0.5721971 0.04211517
vn -0.03805594 0.5745851 0.04167713
vn -0.03805594 0.5745851 0.04167713
vn -0.06450245 0.5736428 -0.01032591
vn -0.03326851 0.5737274 0.05534724
vn -0.03326851 0.5737274 0.05534724
vn -0.06450245 0.5736428 -0.01032591
vn -0.01901112 0.5746182 0.05278086
vn 0.03672513 0.5728351 -0.06200368
vn -0.06450245 0.5736428 -0.01032591
vn 0.0235086 0.5712586 -0.08027628
vt 0.75 0
vt 0.75 0.8885288
vt 0.7916666 0.8885288
vt 0.7916666 0
vt 0.8333333 0.8885288
vt 0.8333333 0
vt 0.875 0.8885288
vt 0.875 0
vt 0.9166667 0.8885288
vt 0.9166667 0
vt 0.9583333 0.8885288
vt 0.9583333 0
vt 0.9999999 0.8885288
vt 0.9999999 0
vt 1.041667 0.8885288
vt 1.041667 0
vt 0.7083333 0
vt 0.7916666 0.9999999
vt 0.8333333 0.9999999
vt 0.8301365 1
vt 0.875 0.9999999
vt 0.9166667 0.9999999
vt 0.9583333 0.9999999
vt 0.9999999 0.9999999
vt 0.5319524 0.9999995
vt 1.041667 0.9999999
vt -2.852545 1
vt 0.6666665 0
vt 0.7083333 0.8885288
vt 0.6666665 0.8885288
vt 0.6249999 0
vt 0.6249999 0.8885288
vt 0.5833333 0
vt 0.5833333 0.8885288
vt 0.5416666 0
vt 0.5416666 0.8885288
vt 0.4999999 0
vt 0.4999999 0.8885288
vt 0.4583333 0
vt 0.4583333 0.8885288
vt 0.4194148 0
vt 0.4167725 0.9047426
vt 0.4166666 0.9999999
vt 0.3749999 0.9999999
vt 0.3749999 0.8885288
vt 0.3749999 0
vt 0.3333333 0
vt 0.3333333 0.8885288
vt 0.2916666 0
vt 0.2916666 0.8885288
vt 0.2499999 0
vt 0.2499999 0.8885288
vt 0.2083333 0
vt 0.2083333 0.8885288
vt 0.1666666 0
vt 0.1666666 0.8885288
vt 0.125 0
vt 0.125 0.8885288
vt 0.08333331 0
vt 0.08333331 0.8885288
vt 0.04166666 0
vt 0.04166666 0.8885288
vt 0.04166666 0.9999999
vt 0.08333331 0.9999999
vt 0.125 0.9999999
vt 0.1666666 0.9999999
vt 0.2083333 0.9999999
vt 0.2499999 0.9999999
vt 0.2916666 0.9999999
vt 0.3333333 0.9999999
vt 0.414062 0
vt 0.7083333 0.9999999
vt 0.6666665 0.9999999
vt 0.6249999 0.9999999
vt 0.5833333 0.9999999
vt 0.5416666 0.9999999
vt 0.4999999 0.9999999
vt 0.4583333 0.9999999
vt 0.75 0.9999999
vt 0.75 0.9999999
vt 0.7353724 0.9999999
vt 0.792706 0.9999999
vt 0.7916666 0.9999999
vt 0.8301365 1
vt 0.7083333 0.9999999
vt 0.8301365 1
vt 0.8934245 0.9999999
vt 0.8333333 0.9999999
vt 0.8934245 0.9999999
vt 0.875 0.9999999
vt 0.8638408 0.9999999
vt 0.9166667 0.9999999
vt 0.9923151 0.9999999
vt 0.9583333 0.9999999
vt 0.9583333 0.9999999
vt 0.9923151 0.9999999
vt 0.5319524 0.9999995
vt 0.6734669 0.9999995
vt 0.6734669 0.9999995
vt -2.852545 1
vt 0.3016426 0.9999999
vt 0.337319 0.9999999
vt 0.2505128 0.9999999
vt 0.6734669 0.9999995
vt 0.2098742 0.9999999
vt 0.1260454 0.9999999
vt 0.1653392 0.9999999
vt 0.6734669 0.9999995
vt 0.09443267 0.9999999
vt 0.6734669 0.9999995
vt -2.852545 1
vt 0.6734669 0.9999995
vt 0.9999999 0.9999999
vt 0.5319524 0.9999995
vt 0.6734669 0.9999995
vt 0.3736342 0.9999999
vt 0.4139026 0.9999999
vt 0.04166666 0.9999999
vt 0.04457619 0.9999999
vt 0.08271911 0.9999999
vt 0.08333331 0.9999999
vt 0.09443267 0.9999999
vt 0.1260454 0.9999999
vt 0.125 0.9999999
vt 0.1653392 0.9999999
vt 0.1666666 0.9999999
vt 0.2098742 0.9999999
vt 0.2083333 0.9999999
vt 0.2505128 0.9999999
vt 0.2499999 0.9999999
vt 0.3016426 0.9999999
vt 0.2916666 0.9999999
vt 0.337319 0.9999999
vt 0.3333333 0.9999999
vt 0.3736342 0.9999999
vt 0.3749999 0.9999999
vt 0.4139026 0.9999999
vt 0.4166666 0.9999999
vt 0.4598092 0.9999995
vt 0.4166666 0.9999999
vt 0.4598092 0.9999995
vt 0.4583333 0.9999999
vt 0.5144376 0.9999999
vt 0.6734669 0.9999995
vt 0.6734669 0.9999995
vt 0.5417553 0.9999999
vt 0.6734669 0.9999995
vt 0.5815144 0.9999999
vt 0.6734669 0.9999995
vt 0.6262133 0.9999999
vt 0.6734669 0.9999995
vt 0.6615162 0.9999999
vt 0.792706 0.9999999
vt 0.8301365 1
vt 0.4583333 0.9999999
vt 0.5144376 0.9999999
vt 0.4999999 0.9999999
vt 0.5417553 0.9999999
vt 0.5416666 0.9999999
vt 0.5815144 0.9999999
vt 0.5833333 0.9999999
vt 0.6262133 0.9999999
vt 0.6249999 0.9999999
vt 0.6615162 0.9999999
vt 0.6666665 0.9999999
vt 0.6734669 0.9999995
vt 0.6666665 0.9999999
vt 0.6734669 0.9999995
vt 0.7083333 0.9999999
vt 0.6734669 0.9999995
vt 0.7353724 0.9999999
vt 0.792706 0.9999999
vt 0.8301365 1
vt 0.8934245 0.9999999
vt 0.8934245 0.9999999
vt 0.6734669 0.9999995
vt 0.8638408 0.9999999
vt 0.8638408 0.9999999
vt 0.6734669 0.9999995
vt 0.9923151 0.9999999
vt 0.4139026 0.9999999
vt 0.6734669 0.9999995
vt 0.4598092 0.9999995
usemtl YellowLight
f 3/3/3 2/2/2 1/1/1
f 4/4/4 3/3/3 1/1/1
f 5/5/5 3/3/3 4/4/4
f 6/6/6 5/5/5 4/4/4
f 7/7/7 5/5/5 6/6/6
f 8/8/8 7/7/7 6/6/6
f 9/9/9 7/7/7 8/8/8
f 10/10/10 9/9/9 8/8/8
f 11/11/11 9/9/9 10/10/10
f 12/12/12 11/11/11 10/10/10
f 13/13/13 11/11/11 12/12/12
f 14/14/14 13/13/13 12/12/12
f 15/15/15 13/13/13 14/14/14
f 16/16/16 15/15/15 14/14/14
f 1/1/1 2/2/2 17/17/17
f 18/18/18 3/3/3 5/5/5
f 19/19/19 18/18/18 5/5/5
f 19/19/19 5/5/5 7/7/7
f 19/19/19 20/20/20 18/18/18
f 21/21/21 19/19/19 7/7/7
f 21/21/21 7/7/7 9/9/9
f 22/22/22 21/21/21 9/9/9
f 22/22/22 9/9/9 11/11/11
f 23/23/23 22/22/22 11/11/11
f 23/23/23 11/11/11 13/13/13
f 24/24/24 23/23/23 13/13/13
f 24/24/24 13/13/13 15/15/15
f 24/24/24 25/25/25 23/23/23
f 26/26/26 24/24/24 15/15/15
f 26/26/26 27/27/27 24/24/24
f 17/17/17 29/29/29 28/28/28
f 29/29/29 30/30/30 28/28/28
f 28/28/28 30/30/30 31/31/31
f 30/30/30 32/32/32 31/31/31
f 31/31/31 32/32/32 33/33/33
f 32/32/32 34/34/34 33/33/33
f 33/33/33 34/34/34 35/35/35
f 34/34/34 36/36/36 35/35/35
f 35/35/35 36/36/36 37/37/37
f 36/36/36 38/38/38 37/37/37
f 37/37/37 38/38/38 39/39/39
f 38/38/38 40/40/40 39/39/39
f 39/39/39 40/40/40 41/41/41
f 40/40/40 42/42/42 41/41/41
f 43/43/43 42/42/42 40/40/40
f 43/43/43 44/44/44 42/42/42
f 44/44/44 45/45/45 42/42/42
f 42/42/42 45/45/45 46/46/46
f 46/46/46 45/45/45 47/47/47
f 45/45/45 48/48/48 47/47/47
f 47/47/47 48/48/48 49/49/49
f 48/48/48 50/50/50 49/49/49
f 49/49/49 50/50/50 51/51/51
f 50/50/50 52/52/52 51/51/51
f 51/51/51 52/52/52 53/53/53
f 52/52/52 54/54/54 53/53/53
f 53/53/53 54/54/54 55/55/55
f 54/54/54 56/56/56 55/55/55
f 55/55/55 56/56/56 57/57/57
f 56/56/56 58/58/58 57/57/57
f 57/57/57 58/58/58 59/59/59
f 58/58/58 60/60/60 59/59/59
f 59/59/59 60/60/60 61/61/61
f 60/60/60 62/62/62 61/61/61
f 63/63/63 62/62/62 60/60/60
f 64/64/64 63/63/63 60/60/60
f 64/64/64 60/60/60 58/58/58
f 65/65/65 64/64/64 58/58/58
f 65/65/65 58/58/58 56/56/56
f 66/66/66 65/65/65 56/56/56
f 66/66/66 56/56/56 54/54/54
f 67/67/67 66/66/66 54/54/54
f 67/67/67 54/54/54 52/52/52
f 68/68/68 67/67/67 52/52/52
f 68/68/68 52/52/52 50/50/50
f 69/69/69 68/68/68 50/50/50
f 69/69/69 50/50/50 48/48/48
f 70/70/70 69/69/69 48/48/48
f 70/70/70 48/48/48 45/45/45
f 44/44/44 70/70/70 45/45/45
f 71/71/71 42/42/42 46/46/46
f 41/41/41 42/42/42 71/71/71
f 2/2/2 29/29/29 17/17/17
f 72/72/72 29/29/29 2/2/2
f 72/72/72 73/73/73 29/29/29
f 73/73/73 30/30/30 29/29/29
f 73/73/73 74/74/74 30/30/30
f 74/74/74 32/32/32 30/30/30
f 74/74/74 75/75/75 32/32/32
f 75/75/75 34/34/34 32/32/32
f 75/75/75 76/76/76 34/34/34
f 76/76/76 36/36/36 34/34/34
f 76/76/76 77/77/77 36/36/36
f 77/77/77 38/38/38 36/36/36
f 77/77/77 78/78/78 38/38/38
f 78/78/78 40/40/40 38/38/38
f 78/78/78 43/43/43 40/40/40
f 79/79/79 72/72/72 2/2/2
f 79/79/79 2/2/2 3/3/3
f 18/18/18 79/79/79 3/3/3
f 82/82/82 81/81/81 80/80/80
f 83/83/83 82/82/82 80/80/80
f 84/84/84 82/82/82 83/83/83
f 80/80/80 81/81/81 85/85/85
f 87/87/87 86/86/86 19/19/19
f 90/90/90 89/89/89 88/88/88
f 91/91/91 89/89/89 90/90/90
f 92/92/92 91/91/91 90/90/90
f 93/93/93 91/91/91 92/92/92
f 94/94/94 93/93/93 92/92/92
f 97/97/97 96/96/96 95/95/95
f 97/97/97 98/98/98 96/96/96
f 100/100/100 99/99/99 97/97/97
f 102/102/102 99/99/99 101/101/101
f 101/101/101 104/104/104 103/103/103
f 103/103/103 104/104/104 105/105/105
f 107/107/107 104/104/104 106/106/106
f 105/105/105 108/108/108 107/107/107
f 106/106/106 110/110/110 109/109/109
f 109/109/109 112/112/112 111/111/111
f 111/111/111 114/114/114 113/113/113
f 116/116/116 115/115/115 102/102/102
f 117/117/117 115/115/115 116/116/116
f 120/120/120 119/119/119 118/118/118
f 121/121/121 120/120/120 118/118/118
f 123/123/123 122/122/122 121/121/121
f 124/124/124 123/123/123 121/121/121
f 125/125/125 123/123/123 124/124/124
f 126/126/126 125/125/125 124/124/124
f 127/127/127 125/125/125 126/126/126
f 128/128/128 127/127/127 126/126/126
f 129/129/129 127/127/127 128/128/128
f 130/130/130 129/129/129 128/128/128
f 131/131/131 129/129/129 130/130/130
f 132/132/132 131/131/131 130/130/130
f 133/133/133 131/131/131 132/132/132
f 134/134/134 133/133/133 132/132/132
f 135/135/135 133/133/133 134/134/134
f 136/136/136 135/135/135 134/134/134
f 137/137/137 135/135/135 136/136/136
f 138/138/138 137/137/137 136/136/136
f 139/139/139 137/137/137 138/138/138
f 142/142/142 141/141/141 140/140/140
f 143/143/143 141/141/141 142/142/142
f 143/143/143 144/144/144 141/141/141
f 146/146/146 145/145/145 143/143/143
f 148/148/148 147/147/147 146/146/146
f 150/150/150 149/149/149 148/148/148
f 152/152/152 151/151/151 150/150/150
f 154/154/154 151/151/151 153/153/153
f 157/157/157 156/156/156 155/155/155
f 158/158/158 156/156/156 157/157/157
f 159/159/159 158/158/158 157/157/157
f 160/160/160 158/158/158 159/159/159
f 161/161/161 160/160/160 159/159/159
f 162/162/162 160/160/160 161/161/161
f 163/163/163 162/162/162 161/161/161
f 164/164/164 162/162/162 163/163/163
f 165/165/165 164/164/164 163/163/163
f 166/166/166 164/164/164 165/165/165
f 169/169/169 168/168/168 167/167/167
f 171/171/171 170/170/170 169/169/169
f 172/172/172 168/168/168 171/171/171
f 174/174/174 168/168/168 173/173/173
f 177/177/177 176/176/176 175/175/175
f 180/180/180 179/179/179 178/178/178
f 183/183/183 182/182/182 181/181/181
