# Export of 
# from Aaro4130 OBJ Exporter v2.0
mtllib dunes01.mtl
g Dunes01
v -5.087305 0.003977112 -2.654798
v -2.934522 0.004000154 -4.134965
v -2.574458 0.2287775 -3.103978
v -5.004523 0.003985408 -2.227895
v -2.934522 0.004000154 -4.134965
v -0.9039416 0.004000148 -4.273006
v -1.136 0.2287775 -3.148329
v -2.574458 0.2287775 -3.103978
v 0.006634406 0.003998071 -4.073186
v -0.4997588 0.2382761 -3.034921
v 0.8560956 0.004000175 -3.660141
v 0.08719265 0.2287775 -2.777393
v 2.24057 0.003985457 -1.081927
v 2.653276 0.004028593 -2.360575
v 3.258842 0.09771402 -1.01192
v 3.619053 0.00405664 -1.944572
v 4.571786 0.09865459 -0.336663
v 4.729681 0.004003908 -0.8698733
v -2.574458 0.2287775 -3.103978
v -1.814989 0.04302711 -2.523365
v -4.184624 0.003978693 -2.095239
v -5.004523 0.003985408 -2.227895
v -1.136 0.2287775 -3.148329
v -0.6205711 0.04302711 -2.573179
v -0.4997588 0.2382761 -3.034921
v -0.00149214 0.04518269 -2.428355
v 0.08719265 0.2287775 -2.777393
v 0.5797668 0.04302711 -2.149966
v 2.24057 0.003985457 -1.081927
v 2.793048 0.003978756 -0.6608348
v -1.814989 0.04302711 -2.523365
v -1.783215 0.187022 -1.622967
v -4.170914 0.003983939 -1.269404
v -4.184624 0.003978693 -2.095239
v -0.6205711 0.04302711 -2.573179
v -0.666625 0.187022 -1.675989
v -0.00149214 0.04518269 -2.428355
v -0.04652406 0.1950364 -1.554402
v 0.5797668 0.04302711 -2.149966
v 0.5396525 0.187022 -1.306883
v 2.793048 0.003978756 -0.6608348
v 2.792894 0.003983998 0.08744171
v -1.783215 0.187022 -1.622967
v -1.763924 -0.005202167 -1.30018
v -4.170914 0.003976995 -1.035839
v -4.170914 0.003983939 -1.269404
v -0.666625 0.187022 -1.675989
v -0.6236332 -0.005202168 -1.375788
v -0.04652406 0.1950364 -1.554402
v -0.03299979 -0.006462096 -1.237287
v 0.5396525 0.187022 -1.306883
v 0.5276455 -0.005202167 -0.9748879
v 2.792894 0.003983998 0.08744171
v 2.519932 0.004055908 0.2210752
v -1.763924 -0.005202167 -1.30018
v -2.517615 0.3194205 -0.9616619
v -5.021257 0.003988749 -0.8029409
v -4.170914 0.003976995 -1.035839
v -0.6236332 -0.005202168 -1.375788
v -1.3896 0.3194205 -0.769671
v -0.03299979 -0.006462096 -1.237287
v -0.8606881 0.3305611 -0.4946361
v 0.5276455 -0.005202167 -0.9748879
v -0.326186 0.3194205 -0.1426443
v 2.007931 0.1496228 0.6666138
v 2.519932 0.004055908 0.2210752
v 2.950711 0.004134778 0.4657063
v 2.711918 0.1496228 0.9821517
v 3.50687 0.004134804 1.066409
v 3.237332 0.1496229 1.598151
v 4.376285 0.004049045 2.640588
v 4.150743 0.004052531 3.085532
v -2.517615 0.3194205 -0.9616619
v -2.809311 0.003574424 0.1747321
v -5.118411 0.003971045 -0.3030632
v -5.021257 0.003988749 -0.8029409
v -1.3896 0.3194205 -0.769671
v -1.571373 0.003574423 0.1655931
v -0.8606881 0.3305611 -0.4946361
v -0.9449954 0.003552367 0.2962989
v -0.326186 0.3194205 -0.1426443
v -0.3252208 0.003574437 0.4756905
v 1.885827 0.004021745 0.9523978
v 2.007931 0.1496228 0.6666138
v -0.326186 0.3194205 -0.1426443
v 2.711918 0.1496228 0.9821517
v 2.610816 0.004054675 1.189644
v 3.237332 0.1496229 1.598151
v 3.131866 0.004054702 1.806913
v 4.150743 0.004052531 3.085532
v 4.088176 0.004047909 3.208961
v 4.729681 0.004003908 -0.8698733
v 5.118411 0.003803168 -0.160788
v 4.705705 0.003755498 0.4369863
v 4.571786 0.09865459 -0.336663
v 4.705705 0.003755498 0.4369863
v 2.24057 0.003985457 -1.081927
v 3.258842 0.09771402 -1.01192
v 4.571786 0.09865459 -0.336663
v -3.680149 0.004980792 0.3765473
v -2.388452 0.004993187 -0.09292679
v -2.166623 0.1600847 0.4934849
v -3.748119 0.004985251 0.6456261
v -2.388452 0.004993187 -0.09292679
v -1.308293 0.004993191 0.01317505
v -1.526156 0.1600847 0.5639695
v -2.166623 0.1600847 0.4934849
v -0.2983117 0.004993207 0.3770773
v -0.8258061 0.1600847 0.7708411
v 0.6359685 0.004985292 1.588511
v 0.814418 0.005008474 1.016081
v 1.165656 0.08966116 1.732141
v 1.296238 0.00502355 1.376815
v 1.819222 0.09016653 2.427134
v 1.867285 0.004995226 2.173687
v 1.898298 0.004861749 2.867462
v 2.044652 0.004887367 2.61747
v -2.166623 0.1600847 0.4934849
v -1.900883 0.06027656 0.8811014
v -3.527357 0.004981653 0.9444791
v -3.748119 0.004985251 0.6456261
v -3.687175 0.004984475 1.461335
v -2.023401 0.1376485 1.454365
v -1.526156 0.1600847 0.5639695
v -1.232001 0.06027656 0.8688663
v -0.8258061 0.1600847 0.7708411
v -0.455314 0.06027656 1.014944
v -1.271705 0.1376485 1.321079
v -0.4885668 0.1376485 1.451795
v 0.9365469 0.004981695 1.915255
v 0.6359685 0.004985292 1.588511
v 0.8933752 0.004984514 2.365082
v 0.6359685 0.004985292 1.588511
v -0.455314 0.06027656 1.014944
v -0.8258061 0.1600847 0.7708411
v -2.023401 0.1376485 1.454365
v -2.051496 0.03436179 1.626452
v -3.711361 0.004980744 1.60227
v -3.687175 0.004984475 1.461335
v -1.271705 0.1376485 1.321079
v -1.288567 0.03436179 1.501311
v -0.4885668 0.1376485 1.451795
v -0.5159398 0.03436179 1.638888
v 0.8933752 0.004984514 2.365082
v 0.7168083 0.005023153 2.415771
v -2.051496 0.03436179 1.626452
v -2.759759 0.06348472 1.734707
v -4.313445 0.004893587 1.777101
v -3.711361 0.004980744 1.60227
v -1.288567 0.03436179 1.501311
v -1.801253 0.1086706 1.848557
v -0.5159398 0.03436179 1.638888
v -1.202617 0.2087893 2.129208
v 0.3357362 0.117553 2.6601
v 0.7168083 0.005023153 2.415771
v 1.016732 0.005065534 2.615934
v 0.8835025 0.117553 2.909923
v 1.391052 0.005065552 3.042144
v 1.25971 0.117553 3.319071
v 1.675861 0.005019476 3.981266
v 1.551425 0.005021347 4.184219
v -2.759759 0.06348472 1.734707
v -2.798881 0.00492297 2.052707
v -4.241702 0.004977551 2.075923
v -4.313445 0.004893587 1.777101
v -1.801253 0.1086706 1.848557
v -1.990229 0.004932099 2.270127
v -1.202617 0.2087893 2.129208
v -1.370383 0.004764447 2.559422
v 0.2024626 0.005004798 2.852441
v 0.3357362 0.117553 2.6601
v -1.202617 0.2087893 2.129208
v 0.8835025 0.117553 2.909923
v 0.8208981 0.005022494 3.028433
v 1.25971 0.117553 3.319071
v 1.196057 0.005022511 3.429539
v 1.551425 0.005021347 4.184219
v 1.502873 0.005018863 4.244644
v -1.288567 0.03436179 1.501311
v -2.759759 0.06348472 1.734707
v -2.051496 0.03436179 1.626452
v 1.898298 0.004861749 2.867462
v 0.6359685 0.004985292 1.588511
v 1.165656 0.08966116 1.732141
v 1.819222 0.09016653 2.427134
vn -0.0632401 0.5697567 -0.06863863
vn -0.03493811 0.5687157 -0.09313985
vn -0.03222658 0.5684911 -0.09546008
vn -0.0632401 0.5697567 -0.06863863
vn -0.03493811 0.5687157 -0.09313985
vn 0.007775632 0.5656633 -0.1153163
vn 0.005729969 0.5656212 -0.1156423
vn -0.03222658 0.5684911 -0.09546008
vn 0.03653712 0.5661768 -0.1069683
vn 0.03387337 0.5661495 -0.1079847
vn 0.05341893 0.5716081 -0.06118685
vn 0.05296346 0.5707167 -0.0693593
vn 0.01606897 0.5763199 -0.03050427
vn 0.02223957 0.576122 -0.03036593
vn 0.009720556 0.5755639 -0.0443278
vn 0.006379262 0.5757233 -0.04284073
vn 0.04216216 0.5728106 -0.05868242
vn 0.04216216 0.5728106 -0.05868242
vn 0.005685169 0.5592135 0.1434618
vn 0.005949969 0.5545048 0.1606932
vn 0.00553812 0.561561 0.1339846
vn 0.00553812 0.561561 0.1339847
vn -0.007435143 0.5480912 0.1813121
vn -0.0333869 0.5400247 0.2014745
vn -0.05972492 0.5308536 0.2189993
vn -0.09333241 0.518418 0.2363583
vn -0.1089262 0.5134598 0.2404734
vn -0.1261588 0.5164757 0.2251001
vn -0.1302212 0.5170685 0.2213953
vn -0.1302212 0.5170685 0.2213953
vn -0.01868709 0.5727637 -0.07018442
vn -0.0198352 0.5729274 -0.06851329
vn -0.03453811 0.5743961 -0.04700542
vn -0.0345381 0.5743961 -0.04700542
vn 0.005409875 0.5698659 -0.09250318
vn 0.005831709 0.5698537 -0.09255343
vn 0.02849121 0.5689076 -0.09415799
vn 0.03381813 0.5685862 -0.09433659
vn 0.05232474 0.5695013 -0.07914378
vn 0.05592061 0.5707124 -0.06703365
vn 0.06085448 0.5719341 -0.05021373
vn 0.06085449 0.5719341 -0.05021374
vn 0.01091611 0.5219109 0.2466234
vn 0.01055733 0.5234204 0.2434192
vn 0.004491662 0.5457262 0.1884038
vn 0.004491662 0.5457262 0.1884038
vn -0.02174773 0.4881139 0.3075796
vn -0.03026154 0.4869845 0.3086483
vn -0.09397729 0.4813937 0.3045681
vn -0.103323 0.4815757 0.301235
vn -0.1105315 0.5101843 0.2466335
vn -0.1005293 0.5245057 0.2193649
vn -0.0835616 0.5442951 0.1734752
vn -0.0835616 0.5442951 0.1734752
vn 0.002069725 0.4753748 -0.3276399
vn -0.04019434 0.4331794 -0.3795699
vn -0.06020214 0.4100512 -0.4019541
vn -0.06020214 0.4100512 -0.4019541
vn 0.05350023 0.5315081 -0.219021
vn 0.03446942 0.5111524 -0.2662111
vn 0.07802593 0.5497566 -0.1581546
vn 0.07329877 0.5470312 -0.1694621
vn 0.08046564 0.5566181 -0.130518
vn 0.08195285 0.5554306 -0.1345878
vn 0.07148173 0.5596271 -0.122643
vn 0.0673421 0.5601476 -0.1226092
vn 0.08251094 0.5600936 -0.1132275
vn 0.08940652 0.5596263 -0.1102643
vn 0.109175 0.5617577 -0.07643569
vn 0.1062971 0.5645624 -0.05747679
vn 0.1023581 0.5672673 -0.03261765
vn 0.1023581 0.5672673 -0.03261765
vn -0.02616019 0.5601817 0.1372784
vn -0.03001048 0.5619577 0.1289816
vn -0.04369118 0.5671028 0.09908988
vn -0.04369118 0.5671028 0.09908988
vn -0.0398255 0.5480716 0.1771008
vn -0.04063965 0.5479026 0.1774386
vn -0.08302327 0.5330771 0.205595
vn -0.08754504 0.5298795 0.2118891
vn -0.08409531 0.5174404 0.2419024
vn -0.07626525 0.5156188 0.2483026
vn -0.07188475 0.5146211 0.2516566
vn -0.07263418 0.5151173 0.2504231
vn -0.08409531 0.5174404 0.2419024
vn -0.1662152 0.4991635 0.2377848
vn -0.1776371 0.4968304 0.2343884
vn -0.2220014 0.4999052 0.1847795
vn -0.2057891 0.5123125 0.1688786
vn -0.1784129 0.5303675 0.1421706
vn -0.1784129 0.5303675 0.1421706
vn 0.09811129 0.5689498 0.001908203
vn 0.09811129 0.5689498 0.001908203
vn 0.09811129 0.5689498 0.001908203
vn 0.09811129 0.5689498 0.001908203
vn -0.05120735 0.5683038 0.08798843
vn -0.05120735 0.5683038 0.08798843
vn -0.05120736 0.5683038 0.08798844
vn -0.05120736 0.5683038 0.08798844
vn -0.05090736 0.5674147 -0.09371375
vn -0.02345109 0.5646455 -0.1181475
vn -0.01055235 0.5625562 -0.1294314
vn -0.05090736 0.5674147 -0.09371374
vn -0.02345109 0.5646455 -0.1181475
vn 0.0335756 0.5570375 -0.1480377
vn 0.03032299 0.5570338 -0.148752
vn -0.01055235 0.5625562 -0.1294314
vn 0.0570083 0.5688895 -0.0803004
vn 0.05297195 0.5640978 -0.1109996
vn 0.01878552 0.5745714 -0.05336799
vn 0.02855414 0.5742977 -0.05196222
vn 0.06737958 0.5664114 -0.08928283
vn 0.03492945 0.570998 -0.07793929
vn 0.1892773 0.5438519 -0.04162397
vn 0.1556469 0.5488712 -0.08858802
vn 0.2111316 0.5372798 -0.009334657
vn 0.2111317 0.5372798 -0.009334657
vn -0.02327501 0.5636556 0.1228166
vn -0.01772317 0.5759187 0.03656355
vn -0.03222321 0.5755766 0.03172614
vn -0.03021636 0.5671248 0.1038736
vn -0.03386212 0.5742244 -0.0495275
vn -0.02385667 0.5731977 -0.064873
vn -0.01802937 0.5467864 0.1844801
vn -0.02296153 0.5716851 0.07734524
vn -0.0623033 0.5144033 0.2546387
vn -0.01510746 0.5737473 0.06260239
vn 0.003471962 0.5699127 -0.09230798
vn 0.04644747 0.5715918 -0.06677426
vn 0.0543938 0.5743726 -0.02169685
vn -0.05932527 0.5498173 0.1658756
vn 0.06755023 0.5716892 -0.0440654
vn -0.05932527 0.5498173 0.1658756
vn -0.01510746 0.5737473 0.06260239
vn -0.0623033 0.5144033 0.2546387
vn 0.01530859 0.5230233 0.2440197
vn 0.004948937 0.5303206 0.228186
vn -0.02768092 0.549001 0.1765358
vn -0.02768092 0.549001 0.1765358
vn -0.001618616 0.5008378 0.2872145
vn 0.002797584 0.5003654 0.2880277
vn -0.06090387 0.5251226 0.2320997
vn -0.06470159 0.5306304 0.2181249
vn -0.07682912 0.5460081 0.1711894
vn -0.07682912 0.5460081 0.1711894
vn -0.01562914 0.5529889 -0.1652039
vn -0.01608264 0.5610058 -0.1354516
vn -0.01612807 0.5617626 -0.1322724
vn -0.01612807 0.5617626 -0.1322724
vn 0.003115672 0.5554842 -0.157356
vn -0.008487893 0.5536484 -0.1635077
vn 0.05540903 0.5613267 -0.1231888
vn 0.02963206 0.5592175 -0.1404672
vn 0.07759824 0.5587589 -0.1228834
vn 0.07920264 0.555369 -0.1364754
vn 0.1115763 0.5468259 -0.1478697
vn 0.1220138 0.5450763 -0.1460748
vn 0.1670783 0.542603 -0.1048819
vn 0.1781182 0.5449293 -0.06825949
vn 0.1896247 0.5446723 -0.02660643
vn 0.1896247 0.5446723 -0.02660642
vn -0.02351099 0.5704843 0.08560505
vn -0.02273914 0.5707751 0.08385736
vn -0.01002107 0.5746364 0.05500837
vn -0.01002107 0.5746364 0.05500837
vn -0.07960628 0.5560411 0.1334711
vn -0.07295965 0.5576736 0.1304239
vn -0.08026809 0.5380303 0.1934264
vn -0.08122759 0.5392026 0.189726
vn -0.07571399 0.5057194 0.268046
vn -0.08410792 0.500591 0.275078
vn -0.08026809 0.5380303 0.1934264
vn -0.1886729 0.4678405 0.2808222
vn -0.1960448 0.465379 0.2798609
vn -0.2859903 0.4528125 0.2156471
vn -0.2857985 0.46559 0.1867578
vn -0.2832987 0.4850558 0.1334018
vn -0.2832987 0.4850558 0.1334018
vn 0.003115672 0.5554842 -0.157356
vn -0.01608264 0.5610058 -0.1354516
vn -0.01562914 0.5529889 -0.1652039
vn -0.1265692 0.5497711 0.1227408
vn -0.1265692 0.5497711 0.1227408
vn -0.1265692 0.5497711 0.1227408
vn -0.1265692 0.5497711 0.1227408
vt 0 1
vt 1 1
vt 1 0
vt 0 0
vt 1 1
vt 1 1
vt 1 0
vt 1 0
vt 1 1
vt 1 0
vt 1 1
vt 1 0
vt 1 0
vt 1 1
vt 1 0
vt 1 1
vt 1 0
vt 1 1
vt 1 0
vt 1 0
vt 0 0
vt 0 0
vt 1 0
vt 1 0
vt 1 0
vt 1 0
vt 1 0
vt 1 0
vt 1 0
vt 1 0
vt 1 0
vt 1 0
vt 0 0
vt 0 0
vt 1 0
vt 1 0
vt 1 0
vt 1 0
vt 1 0
vt 1 0
vt 1 0
vt 1 0
vt 1 0
vt 1 0
vt 0 0
vt 0 0
vt 1 0
vt 1 0
vt 1 0
vt 1 0
vt 1 0
vt 1 0
vt 1 0
vt 1 0
vt 1 0
vt 1 0
vt 0 0
vt 0 0
vt 1 0
vt 1 0
vt 1 0
vt 1 0
vt 1 0
vt 1 0
vt 1 0
vt 1 0
vt 1 0
vt 1 0
vt 1 0
vt 1 0
vt 1 0
vt 1 0
vt 1 0
vt 1 0
vt 0 0
vt 0 0
vt 1 0
vt 1 0
vt 1 0
vt 1 0
vt 1 0
vt 1 0
vt 1 0
vt 1 0
vt 0 0
vt 1 0
vt 1 0
vt 1 0
vt 1 0
vt 1 0
vt 1 0
vt 1 1
vt 1 1
vt 1 0
vt 1 0
vt 1 0
vt 1 0
vt 1 0
vt 1 0
vt 0 1
vt 1 1
vt 1 0
vt 0 0
vt 1 1
vt 1 1
vt 1 0
vt 1 0
vt 1 1
vt 1 0
vt 1 0
vt 1 1
vt 1 0
vt 1 1
vt 1 0
vt 1 1
vt 1 0
vt 1 1
vt 1 0
vt 1 0
vt 0 0
vt 0 0
vt 0 0
vt 1 0
vt 1 0
vt 1 0
vt 1 0
vt 1 0
vt 1 0
vt 1 0
vt 1 0
vt 1 0
vt 1 0
vt 1 0
vt 1 0
vt 1 0
vt 1 0
vt 1 0
vt 0 0
vt 0 0
vt 1 0
vt 1 0
vt 1 0
vt 1 0
vt 1 0
vt 1 0
vt 1 0
vt 1 0
vt 0 0
vt 0 0
vt 1 0
vt 1 0
vt 1 0
vt 1 0
vt 1 0
vt 1 0
vt 1 0
vt 1 0
vt 1 0
vt 1 0
vt 1 0
vt 1 0
vt 1 0
vt 1 0
vt 0 0
vt 0 0
vt 1 0
vt 1 0
vt 1 0
vt 1 0
vt 1 0
vt 1 0
vt 0 0
vt 1 0
vt 1 0
vt 1 0
vt 1 0
vt 1 0
vt 1 0
vt 1 0
vt 1 0
vt 1 0
vt 1 0
vt 1 0
vt 1 0
vt 1 0
usemtl YellowLight
f 3/3/3 2/2/2 1/1/1
f 4/4/4 3/3/3 1/1/1
f 7/7/7 6/6/6 5/5/5
f 8/8/8 7/7/7 5/5/5
f 9/9/9 6/6/6 7/7/7
f 10/10/10 9/9/9 7/7/7
f 11/11/11 9/9/9 10/10/10
f 12/12/12 11/11/11 10/10/10
f 12/12/12 13/13/13 11/11/11
f 13/13/13 14/14/14 11/11/11
f 13/13/13 15/15/15 14/14/14
f 15/15/15 16/16/16 14/14/14
f 15/15/15 17/17/17 16/16/16
f 17/17/17 18/18/18 16/16/16
f 21/21/21 20/20/20 19/19/19
f 22/22/22 21/21/21 19/19/19
f 19/19/19 20/20/20 23/23/23
f 20/20/20 24/24/24 23/23/23
f 23/23/23 24/24/24 25/25/25
f 24/24/24 26/26/26 25/25/25
f 25/25/25 26/26/26 27/27/27
f 26/26/26 28/28/28 27/27/27
f 27/27/27 28/28/28 29/29/29
f 28/28/28 30/30/30 29/29/29
f 33/33/33 32/32/32 31/31/31
f 34/34/34 33/33/33 31/31/31
f 31/31/31 32/32/32 35/35/35
f 32/32/32 36/36/36 35/35/35
f 35/35/35 36/36/36 37/37/37
f 36/36/36 38/38/38 37/37/37
f 37/37/37 38/38/38 39/39/39
f 38/38/38 40/40/40 39/39/39
f 39/39/39 40/40/40 41/41/41
f 40/40/40 42/42/42 41/41/41
f 45/45/45 44/44/44 43/43/43
f 46/46/46 45/45/45 43/43/43
f 43/43/43 44/44/44 47/47/47
f 44/44/44 48/48/48 47/47/47
f 47/47/47 48/48/48 49/49/49
f 48/48/48 50/50/50 49/49/49
f 49/49/49 50/50/50 51/51/51
f 50/50/50 52/52/52 51/51/51
f 51/51/51 52/52/52 53/53/53
f 52/52/52 54/54/54 53/53/53
f 57/57/57 56/56/56 55/55/55
f 58/58/58 57/57/57 55/55/55
f 55/55/55 56/56/56 59/59/59
f 56/56/56 60/60/60 59/59/59
f 59/59/59 60/60/60 61/61/61
f 60/60/60 62/62/62 61/61/61
f 61/61/61 62/62/62 63/63/63
f 62/62/62 64/64/64 63/63/63
f 64/64/64 65/65/65 63/63/63
f 65/65/65 66/66/66 63/63/63
f 66/66/66 65/65/65 67/67/67
f 65/65/65 68/68/68 67/67/67
f 67/67/67 68/68/68 69/69/69
f 68/68/68 70/70/70 69/69/69
f 69/69/69 70/70/70 71/71/71
f 70/70/70 72/72/72 71/71/71
f 75/75/75 74/74/74 73/73/73
f 76/76/76 75/75/75 73/73/73
f 73/73/73 74/74/74 77/77/77
f 74/74/74 78/78/78 77/77/77
f 77/77/77 78/78/78 79/79/79
f 78/78/78 80/80/80 79/79/79
f 79/79/79 80/80/80 81/81/81
f 80/80/80 82/82/82 81/81/81
f 82/82/82 83/83/83 81/81/81
f 85/85/85 83/83/83 84/84/84
f 84/84/84 83/83/83 86/86/86
f 83/83/83 87/87/87 86/86/86
f 86/86/86 87/87/87 88/88/88
f 87/87/87 89/89/89 88/88/88
f 88/88/88 89/89/89 90/90/90
f 89/89/89 91/91/91 90/90/90
f 94/94/94 93/93/93 92/92/92
f 95/95/95 94/94/94 92/92/92
f 98/98/98 97/97/97 96/96/96
f 99/99/99 98/98/98 96/96/96
f 102/102/102 101/101/101 100/100/100
f 103/103/103 102/102/102 100/100/100
f 106/106/106 105/105/105 104/104/104
f 107/107/107 106/106/106 104/104/104
f 108/108/108 105/105/105 106/106/106
f 109/109/109 108/108/108 106/106/106
f 109/109/109 110/110/110 108/108/108
f 110/110/110 111/111/111 108/108/108
f 110/110/110 112/112/112 111/111/111
f 112/112/112 113/113/113 111/111/111
f 112/112/112 114/114/114 113/113/113
f 114/114/114 115/115/115 113/113/113
f 114/114/114 116/116/116 115/115/115
f 116/116/116 117/117/117 115/115/115
f 120/120/120 119/119/119 118/118/118
f 121/121/121 120/120/120 118/118/118
f 120/120/120 122/122/122 119/119/119
f 122/122/122 123/123/123 119/119/119
f 118/118/118 119/119/119 124/124/124
f 119/119/119 125/125/125 124/124/124
f 119/119/119 123/123/123 125/125/125
f 124/124/124 125/125/125 126/126/126
f 125/125/125 127/127/127 126/126/126
f 125/125/125 128/128/128 127/127/127
f 123/123/123 128/128/128 125/125/125
f 128/128/128 129/129/129 127/127/127
f 127/127/127 129/129/129 130/130/130
f 127/127/127 130/130/130 131/131/131
f 129/129/129 132/132/132 130/130/130
f 135/135/135 134/134/134 133/133/133
f 138/138/138 137/137/137 136/136/136
f 139/139/139 138/138/138 136/136/136
f 136/136/136 137/137/137 140/140/140
f 137/137/137 141/141/141 140/140/140
f 140/140/140 141/141/141 142/142/142
f 141/141/141 143/143/143 142/142/142
f 142/142/142 143/143/143 144/144/144
f 143/143/143 145/145/145 144/144/144
f 148/148/148 147/147/147 146/146/146
f 149/149/149 148/148/148 146/146/146
f 147/147/147 151/151/151 150/150/150
f 150/150/150 151/151/151 152/152/152
f 151/151/151 153/153/153 152/152/152
f 153/153/153 154/154/154 152/152/152
f 154/154/154 155/155/155 152/152/152
f 155/155/155 154/154/154 156/156/156
f 154/154/154 157/157/157 156/156/156
f 156/156/156 157/157/157 158/158/158
f 157/157/157 159/159/159 158/158/158
f 158/158/158 159/159/159 160/160/160
f 159/159/159 161/161/161 160/160/160
f 164/164/164 163/163/163 162/162/162
f 165/165/165 164/164/164 162/162/162
f 162/162/162 163/163/163 166/166/166
f 163/163/163 167/167/167 166/166/166
f 166/166/166 167/167/167 168/168/168
f 167/167/167 169/169/169 168/168/168
f 169/169/169 170/170/170 168/168/168
f 172/172/172 170/170/170 171/171/171
f 171/171/171 170/170/170 173/173/173
f 170/170/170 174/174/174 173/173/173
f 173/173/173 174/174/174 175/175/175
f 174/174/174 176/176/176 175/175/175
f 175/175/175 176/176/176 177/177/177
f 176/176/176 178/178/178 177/177/177
f 181/181/181 180/180/180 179/179/179
f 184/184/184 183/183/183 182/182/182
f 185/185/185 184/184/184 182/182/182
