# Export of 
# from Aaro4130 OBJ Exporter v2.0
mtllib shell.mtl
g Shell
v 0.1293333 0 0
v 0.1293333 -3.814697E-08 0.2057506
v 0.09145243 0.0914524 0.2057506
v 0.09145243 0.09145243 0
v 0.09145243 -0.09145244 0
v 0.09145243 -0.09145248 0.2057506
v 0.09145243 0.09145243 0
v 0.09145243 0.0914524 0.2057506
v -4.768371E-09 0.1293332 0.2057506
v -4.768371E-09 0.1293333 0
v -4.768371E-09 0.1293333 0
v -4.768371E-09 0.1293332 0.2057506
v -0.09145244 0.0914524 0.2057506
v -0.09145244 0.09145243 0
v -0.09145244 0.09145243 0
v -0.09145244 0.0914524 0.2057506
v -0.1293333 -4.768371E-08 0.2057506
v -0.1293333 -9.536743E-09 0
v -0.1293333 -9.536743E-09 0
v -0.1293333 -4.768371E-08 0.2057506
v -0.0914524 -0.09145248 0.2057506
v -0.0914524 -0.09145244 0
v 0 -0.1293333 0.2057506
v 0 -0.1293333 0
v 0 -0.1293333 0
v 0 -0.1293333 0.2057506
v 0.09145243 -0.09145248 0.2057506
v 0.09145243 -0.09145244 0
v 0.1056093 -0.1056093 -0.06463058
v 0.1493541 9.536743E-09 -0.06463058
v 0.1056093 0.1056093 -0.06463058
v 0 -0.149354 -0.06463058
v -4.768371E-09 0.1493541 -0.06463058
v -0.1056092 -0.1056093 -0.06463058
v -0.1056093 0.1056093 -0.06463058
v -0.1493541 0 -0.06463058
v 0.09145243 0.09145243 0
v 0.1056093 0.1056093 -0.01211822
v 0.1493541 0 -0.01211822
v 0.1293333 0 0
v 0.1056093 -0.1056093 -0.01211822
v 0.09145243 -0.09145244 0
v 0 -0.1493541 -0.01211822
v 0 -0.1293333 0
v -0.1056092 -0.1056093 -0.01211822
v -0.0914524 -0.09145244 0
v -0.1493541 -9.536743E-09 -0.01211822
v -0.1293333 -9.536743E-09 0
v -0.1056093 0.1056093 -0.01211822
v -0.09145244 0.09145243 0
v -4.768371E-09 0.149354 -0.01211822
v -4.768371E-09 0.1293333 0
v 0.1056093 0.1056093 -0.01211822
v 0.1056093 0.1056093 -0.06463058
v 0.1493541 9.536743E-09 -0.06463058
v 0.1493541 0 -0.01211822
v -4.768371E-09 0.149354 -0.01211822
v -4.768371E-09 0.1493541 -0.06463058
v 0.1493541 0 -0.01211822
v 0.1493541 9.536743E-09 -0.06463058
v 0.1056093 -0.1056093 -0.06463058
v 0.1056093 -0.1056093 -0.01211822
v 0 -0.149354 -0.06463058
v 0 -0.1493541 -0.01211822
v 0 -0.1493541 -0.01211822
v 0 -0.149354 -0.06463058
v -0.1056092 -0.1056093 -0.06463058
v -0.1056092 -0.1056093 -0.01211822
v -0.1493541 0 -0.06463058
v -0.1493541 -9.536743E-09 -0.01211822
v -0.1493541 -9.536743E-09 -0.01211822
v -0.1493541 0 -0.06463058
v -0.1056093 0.1056093 -0.06463058
v -0.1056093 0.1056093 -0.01211822
v -4.768371E-09 0.1493541 -0.06463058
v -4.768371E-09 0.149354 -0.01211822
v 0.1293333 -3.814697E-08 0.2057506
v 0.1293333 -3.814697E-08 0.2084434
v 0.09145243 0.0914524 0.2084434
v 0.09145243 0.0914524 0.2057506
v 0.09145243 -0.09145248 0.2057506
v 0.09145243 -0.09145248 0.2084434
v 0.09145243 0.0914524 0.2057506
v 0.09145243 0.0914524 0.2084434
v -4.768371E-09 0.1293332 0.2084434
v -4.768371E-09 0.1293332 0.2057506
v -0.09145244 0.0914524 0.2084434
v -0.09145244 0.0914524 0.2057506
v -0.09145244 0.0914524 0.2057506
v -0.09145244 0.0914524 0.2084434
v -0.1293333 -4.768371E-08 0.2084434
v -0.1293333 -4.768371E-08 0.2057506
v -0.1148838 -4.768371E-08 0.2205617
v -0.08123508 0.08123505 0.2205617
v -4.768371E-09 0.1293332 0.2084434
v -4.768371E-09 0.1148837 0.2205617
v -0.08123508 -0.08123514 0.2205617
v -0.0914524 -0.09145248 0.2084434
v -0.1293333 -4.768371E-08 0.2057506
v -0.1293333 -4.768371E-08 0.2084434
v -0.0914524 -0.09145248 0.2084434
v -0.0914524 -0.09145248 0.2057506
v 0 -0.1293333 0.2084434
v 0 -0.1293333 0.2057506
v 0 -0.1148838 0.2205617
v -0.08123508 -0.08123514 0.2205617
v 0 -0.1293333 0.2057506
v 0 -0.1293333 0.2084434
v 0.09145243 -0.09145248 0.2084434
v 0.09145243 -0.09145248 0.2057506
v 0.08123508 -0.08123514 0.2205617
v 0 -0.1148838 0.2205617
v 0.1293333 -3.814697E-08 0.2084434
v 0.1148838 -3.814697E-08 0.2205617
v 0.08123508 0.08123505 0.2205617
v 0.09145243 0.0914524 0.2084434
v -4.768371E-09 0.1148837 0.2205617
v -4.768371E-09 0.1293332 0.2084434
v 0.09145243 -0.09145248 0.2084434
v 0.08123508 -0.08123514 0.2205617
v 0.1148838 -3.814697E-08 0.2205617
v 0.1282218 -3.814697E-08 0.229987
v 0.09066648 0.09066644 0.229987
v 0.08123508 0.08123505 0.2205617
v -4.768371E-09 0.1282217 0.229987
v -4.768371E-09 0.1148837 0.2205617
v -0.09066648 0.09066644 0.229987
v -0.08123508 0.08123505 0.2205617
v -0.1282218 -4.768371E-08 0.229987
v -0.1148838 -4.768371E-08 0.2205617
v -0.09066647 -0.09066653 0.229987
v -0.08123508 -0.08123514 0.2205617
v 0 -0.1282218 0.229987
v 0 -0.1148838 0.2205617
v 0.09066648 -0.09066653 0.229987
v 0.08123508 -0.08123514 0.2205617
v 0.1282218 -3.814697E-08 0.229987
v 0.1246051 -4.768371E-08 0.2838458
v 0.08810911 0.08810906 0.2838458
v 0.09066648 0.09066644 0.229987
v 0.09066648 -0.09066653 0.229987
v 0.08810911 -0.08810919 0.2838458
v 0.06872448 0.06872441 0.3767523
v 0.09719108 -7.629394E-08 0.3767523
v 0.06872448 -0.06872456 0.3767523
v 0.09066648 0.09066644 0.229987
v 0.08810911 0.08810906 0.2838458
v -4.768371E-09 0.1246051 0.2838458
v -4.768371E-09 0.1282217 0.229987
v -0.08810911 0.08810906 0.2838458
v -0.09066648 0.09066644 0.229987
v -4.768371E-09 0.09719101 0.3767523
v 0.06872448 0.06872441 0.3767523
v -0.06872448 0.06872441 0.3767523
v -0.09066648 0.09066644 0.229987
v -0.08810911 0.08810906 0.2838458
v -0.1246051 -5.722046E-08 0.2838458
v -0.1282218 -4.768371E-08 0.229987
v -0.08810911 -0.08810919 0.2838458
v -0.09066647 -0.09066653 0.229987
v -0.09719108 -7.629394E-08 0.3767523
v -0.06872448 0.06872441 0.3767523
v -0.06872445 -0.06872456 0.3767523
v -0.09066647 -0.09066653 0.229987
v -0.08810911 -0.08810919 0.2838458
v 0 -0.1246052 0.2838458
v 0 -0.1282218 0.229987
v 0.08810911 -0.08810919 0.2838458
v 0.09066648 -0.09066653 0.229987
v 0 -0.09719116 0.3767523
v -0.06872445 -0.06872456 0.3767523
v 0.06872448 -0.06872456 0.3767523
v 0.09719108 -7.629394E-08 0.3767523
v 4.768371E-09 -8.583068E-08 0.4606306
v 0.06872448 0.06872441 0.3767523
v 0.06872448 -0.06872456 0.3767523
v 0.06872448 0.06872441 0.3767523
v 4.768371E-09 -8.583068E-08 0.4606306
v -4.768371E-09 0.09719101 0.3767523
v -0.06872448 0.06872441 0.3767523
v -0.06872448 0.06872441 0.3767523
v 4.768371E-09 -8.583068E-08 0.4606306
v -0.09719108 -7.629394E-08 0.3767523
v -0.06872445 -0.06872456 0.3767523
v -0.06872445 -0.06872456 0.3767523
v 4.768371E-09 -8.583068E-08 0.4606306
v 0 -0.09719116 0.3767523
v 0.06872448 -0.06872456 0.3767523
vn 0.5773503 0 0
vn 0.5773503 0 0
vn 0.4082483 0.4082483 6.651209E-08
vn 0.4082483 0.4082483 6.651209E-08
vn 0.4082483 -0.4082483 -6.651209E-08
vn 0.4082483 -0.4082483 -6.651209E-08
vn 0.4082483 0.4082483 6.651209E-08
vn 0.4082483 0.4082483 6.651209E-08
vn 0 0.5773503 9.40623E-08
vn 0 0.5773503 9.40623E-08
vn 0 0.5773503 9.40623E-08
vn 0 0.5773503 9.40623E-08
vn -0.4082483 0.4082482 6.651209E-08
vn -0.4082483 0.4082482 6.651209E-08
vn -0.4082483 0.4082482 6.651209E-08
vn -0.4082483 0.4082482 6.651209E-08
vn -0.5773503 -5.928219E-08 0
vn -0.5773503 -5.928219E-08 0
vn -0.5773503 -5.928219E-08 0
vn -0.5773503 -5.928219E-08 0
vn -0.4082482 -0.4082483 -6.65121E-08
vn -0.4082482 -0.4082483 -6.65121E-08
vn 0 -0.5773503 -9.40623E-08
vn 0 -0.5773503 -9.40623E-08
vn 0 -0.5773503 -9.40623E-08
vn 0 -0.5773503 -9.40623E-08
vn 0.4082483 -0.4082483 -6.651209E-08
vn 0.4082483 -0.4082483 -6.651209E-08
vn 0 9.40623E-08 -0.5773503
vn 0 9.40623E-08 -0.5773503
vn 0 9.40623E-08 -0.5773503
vn 0 9.40623E-08 -0.5773503
vn 0 9.40623E-08 -0.5773503
vn 0 9.40623E-08 -0.5773503
vn 0 9.40623E-08 -0.5773503
vn 0 9.40623E-08 -0.5773503
vn 0.2113972 0.2113971 0.4939188
vn 0.2113972 0.2113971 0.4939188
vn 0.2989607 -8.04696E-08 0.4939188
vn 0.2989607 -8.04696E-08 0.4939188
vn 0.2113972 -0.2113972 0.4939188
vn 0.2113971 -0.2113972 0.4939188
vn 0 -0.2989608 0.4939188
vn 0 -0.2989609 0.4939188
vn -0.2113971 -0.2113972 0.4939188
vn -0.2113971 -0.2113972 0.4939188
vn -0.2989607 -9.469268E-08 0.4939189
vn -0.2989607 -9.895141E-08 0.4939188
vn -0.2113972 0.2113971 0.4939189
vn -0.2113972 0.2113971 0.4939188
vn 0 0.2989607 0.4939188
vn 0 0.2989607 0.4939188
vn 0.4082483 0.4082483 6.651209E-08
vn 0.4082483 0.4082483 6.651209E-08
vn 0.5773503 0 0
vn 0.5773503 0 0
vn 0 0.5773503 9.40623E-08
vn 0 0.5773503 9.40623E-08
vn 0.5773503 0 0
vn 0.5773503 0 0
vn 0.4082483 -0.4082483 -6.651209E-08
vn 0.4082483 -0.4082483 -6.651209E-08
vn 0 -0.5773503 -9.40623E-08
vn 0 -0.5773503 -9.40623E-08
vn 0 -0.5773503 -9.40623E-08
vn 0 -0.5773503 -9.40623E-08
vn -0.4082482 -0.4082483 -6.65121E-08
vn -0.4082482 -0.4082483 -6.65121E-08
vn -0.5773503 0 0
vn -0.5773503 0 0
vn -0.5773503 0 0
vn -0.5773503 0 0
vn -0.4082483 0.4082483 6.651209E-08
vn -0.4082483 0.4082483 6.651209E-08
vn 0 0.5773503 9.40623E-08
vn 0 0.5773503 9.40623E-08
vn 0.5773503 0 0
vn 0.5322096 0 0.2237997
vn 0.376329 0.3763289 0.2237998
vn 0.4082483 0.4082483 6.651209E-08
vn 0.4082483 -0.4082483 -6.651209E-08
vn 0.376329 -0.3763291 0.2237996
vn 0.4082483 0.4082483 6.651209E-08
vn 0.376329 0.3763289 0.2237998
vn 0 0.5322095 0.2237998
vn 0 0.5773503 9.40623E-08
vn -0.376329 0.3763289 0.2237998
vn -0.4082483 0.4082482 6.651209E-08
vn -0.4082483 0.4082482 6.651209E-08
vn -0.376329 0.3763289 0.2237998
vn -0.5322096 -9.306157E-08 0.2237997
vn -0.5773503 -5.928219E-08 0
vn -0.3709998 -1.197208E-07 0.4423715
vn -0.2623364 0.2623364 0.4423715
vn 0 0.5322095 0.2237998
vn 0 0.3709996 0.4423715
vn -0.2623365 -0.2623366 0.4423714
vn -0.376329 -0.3763291 0.2237996
vn -0.5773503 -5.928219E-08 0
vn -0.5322096 -9.306157E-08 0.2237997
vn -0.376329 -0.3763291 0.2237996
vn -0.4082482 -0.4082483 -6.65121E-08
vn 0 -0.5322096 0.2237995
vn 0 -0.5773503 -9.40623E-08
vn 0 -0.3709999 0.4423714
vn -0.2623365 -0.2623366 0.4423714
vn 0 -0.5773503 -9.40623E-08
vn 0 -0.5322096 0.2237995
vn 0.376329 -0.3763291 0.2237996
vn 0.4082483 -0.4082483 -6.651209E-08
vn 0.2623365 -0.2623365 0.4423714
vn 0 -0.3709999 0.4423714
vn 0.5322096 0 0.2237997
vn 0.3709997 -8.160132E-08 0.4423715
vn 0.2623364 0.2623364 0.4423715
vn 0.376329 0.3763289 0.2237998
vn 0 0.3709996 0.4423715
vn 0 0.5322095 0.2237998
vn 0.376329 -0.3763291 0.2237996
vn 0.2623365 -0.2623365 0.4423714
vn 0.3331892 9.555234E-08 -0.4715064
vn 0.3331892 9.093782E-08 -0.4715064
vn 0.2356003 0.2356004 -0.4715063
vn 0.2356003 0.2356004 -0.4715063
vn 0 0.3331892 -0.4715064
vn 0 0.3331892 -0.4715064
vn -0.2356003 0.2356004 -0.4715063
vn -0.2356004 0.2356004 -0.4715064
vn -0.3331891 6.269848E-08 -0.4715064
vn -0.3331891 5.808397E-08 -0.4715064
vn -0.2356002 -0.2356002 -0.4715064
vn -0.2356003 -0.2356002 -0.4715064
vn 0 -0.333189 -0.4715064
vn 0 -0.3331891 -0.4715064
vn 0.2356003 -0.2356002 -0.4715065
vn 0.2356003 -0.2356002 -0.4715065
vn 0.5760529 0 0.03868236
vn 0.5687861 0 0.09907405
vn 0.4021925 0.4021925 0.0990741
vn 0.4073309 0.407331 0.03868244
vn 0.4073308 -0.407331 0.0386823
vn 0.4021925 -0.4021925 0.09907397
vn 0.3505067 0.3505066 0.2960126
vn 0.4956913 0 0.2960126
vn 0.3505067 -0.3505068 0.2960124
vn 0.4073309 0.407331 0.03868244
vn 0.4021925 0.4021925 0.0990741
vn 0 0.5687861 0.09907414
vn 0 0.5760529 0.03868246
vn -0.4021926 0.4021924 0.0990741
vn -0.4073309 0.4073309 0.03868243
vn 0 0.4956913 0.2960127
vn 0.3505067 0.3505066 0.2960126
vn -0.3505067 0.3505066 0.2960126
vn -0.4073309 0.4073309 0.03868243
vn -0.4021926 0.4021924 0.0990741
vn -0.5687861 0 0.09907404
vn -0.5760529 0 0.03868237
vn -0.4021924 -0.4021926 0.09907397
vn -0.4073309 -0.407331 0.0386823
vn -0.4956913 -9.314532E-08 0.2960125
vn -0.3505067 0.3505066 0.2960126
vn -0.3505067 -0.3505068 0.2960124
vn -0.4073309 -0.407331 0.0386823
vn -0.4021924 -0.4021926 0.09907397
vn 0 -0.5687861 0.09907392
vn 0 -0.5760529 0.03868227
vn 0.4021925 -0.4021925 0.09907397
vn 0.4073308 -0.407331 0.0386823
vn 0 -0.4956914 0.2960124
vn -0.3505067 -0.3505068 0.2960124
vn 0.3505067 -0.3505068 0.2960124
vn 0.4956913 0 0.2960126
vn 0 -1.366196E-07 0.5773503
vn 0.3505067 0.3505066 0.2960126
vn 0.3505067 -0.3505068 0.2960124
vn 0.3505067 0.3505066 0.2960126
vn 0 -1.366196E-07 0.5773503
vn 0 0.4956913 0.2960127
vn -0.3505067 0.3505066 0.2960126
vn -0.3505067 0.3505066 0.2960126
vn 0 -1.366196E-07 0.5773503
vn -0.4956913 -9.314532E-08 0.2960125
vn -0.3505067 -0.3505068 0.2960124
vn -0.3505067 -0.3505068 0.2960124
vn 0 -1.366196E-07 0.5773503
vn 0 -0.4956914 0.2960124
vn 0.3505067 -0.3505068 0.2960124
vt 0.75 0
vt 0.75 1
vt 0.875 1
vt 0.875 0
vt 0.625 0
vt 0.625 1
vt 0.875 0
vt 0.875 1
vt 1 1
vt 1 0
vt 3.794549E-08 0
vt 3.794549E-08 1
vt 0.125 1
vt 0.125 0
vt 0.125 0
vt 0.125 1
vt 0.25 1
vt 0.25 0
vt 0.25 0
vt 0.25 1
vt 0.3750001 1
vt 0.3750001 0
vt 0.5 1
vt 0.5 0
vt 0.5 0
vt 0.5 1
vt 0.625 1
vt 0.625 0
vt 0.8535534 0.8535534
vt 0.5 1
vt 0.1464466 0.8535534
vt 1 0.5
vt 0 0.5
vt 0.8535535 0.1464467
vt 0.1464466 0.1464466
vt 0.5000001 0
vt 0.1464466 0.8535534
vt 0.1464466 0.8535534
vt 0.5 1
vt 0.5 1
vt 0.8535534 0.8535534
vt 0.8535534 0.8535534
vt 1 0.5
vt 1 0.5
vt 0.8535535 0.1464467
vt 0.8535535 0.1464467
vt 0.5000001 0
vt 0.5000001 0
vt 0.1464466 0.1464466
vt 0.1464466 0.1464466
vt 0 0.5
vt 0 0.5
vt 0.1464466 0.8535534
vt 0.1464466 0.8535534
vt 0.5 1
vt 0.5 1
vt 0 0.5
vt 0 0.5
vt 0.5 1
vt 0.5 1
vt 0.8535534 0.8535534
vt 0.8535534 0.8535534
vt 1 0.5
vt 1 0.5
vt 1 0.5
vt 1 0.5
vt 0.8535535 0.1464467
vt 0.8535535 0.1464467
vt 0.5000001 0
vt 0.5000001 0
vt 0.5000001 0
vt 0.5000001 0
vt 0.1464466 0.1464466
vt 0.1464466 0.1464466
vt 0 0.5
vt 0 0.5
vt 0.5 1
vt 0.5 1
vt 0.1464466 0.8535534
vt 0.1464466 0.8535534
vt 0.8535534 0.8535534
vt 0.8535534 0.8535534
vt 0.1464466 0.8535534
vt 0.1464466 0.8535534
vt 0 0.5
vt 0 0.5
vt 0.1464466 0.1464466
vt 0.1464466 0.1464466
vt 0.1464466 0.1464466
vt 0.1464466 0.1464466
vt 0.5000001 0
vt 0.5000001 0
vt 0.5000001 0
vt 0.1464466 0.1464466
vt 0 0.5
vt 0 0.5
vt 0.8535535 0.1464467
vt 0.8535535 0.1464467
vt 0.5000001 0
vt 0.5000001 0
vt 0.8535535 0.1464467
vt 0.8535535 0.1464467
vt 1 0.5
vt 1 0.5
vt 1 0.5
vt 0.8535535 0.1464467
vt 1 0.5
vt 1 0.5
vt 0.8535534 0.8535534
vt 0.8535534 0.8535534
vt 0.8535534 0.8535534
vt 1 0.5
vt 0.5 1
vt 0.5 1
vt 0.1464466 0.8535534
vt 0.1464466 0.8535534
vt 0 0.5
vt 0 0.5
vt 0.8535534 0.8535534
vt 0.8535534 0.8535534
vt 0.5 1
vt 0.5 1
vt 0.1464466 0.8535534
vt 0.1464466 0.8535534
vt 0 0.5
vt 0 0.5
vt 0.1464466 0.1464466
vt 0.1464466 0.1464466
vt 0.5000001 0
vt 0.5000001 0
vt 0.8535535 0.1464467
vt 0.8535535 0.1464467
vt 1 0.5
vt 1 0.5
vt 0.8535534 0.8535534
vt 0.8535534 0.8535534
vt 0.5 1
vt 0.5 1
vt 0.1464466 0.8535534
vt 0.1464466 0.8535534
vt 0.8535534 0.8535534
vt 0.8535534 0.8535534
vt 0.1464466 0.8535534
vt 0.5 1
vt 0.8535534 0.8535534
vt 0.1464466 0.8535534
vt 0.1464466 0.8535534
vt 0 0.5
vt 0 0.5
vt 0.1464466 0.1464466
vt 0.1464466 0.1464466
vt 0 0.5
vt 0.1464466 0.8535534
vt 0.1464466 0.1464466
vt 0.1464466 0.1464466
vt 0.1464466 0.1464466
vt 0.5000001 0
vt 0.5000001 0
vt 0.8535535 0.1464467
vt 0.8535535 0.1464467
vt 0.5000001 0
vt 0.1464466 0.1464466
vt 0.8535535 0.1464467
vt 0.8535535 0.1464467
vt 0.8535535 0.1464467
vt 1 0.5
vt 1 0.5
vt 0.8535534 0.8535534
vt 0.8535534 0.8535534
vt 1 0.5
vt 0.8535535 0.1464467
vt 0.8535534 0.8535534
vt 0.5 1
vt 0.5 0.5
vt 0.1464466 0.8535534
vt 0.8535534 0.8535534
vt 0.1464466 0.8535534
vt 0.5 0.5
vt 0 0.5
vt 0.1464466 0.1464466
vt 0.1464466 0.1464466
vt 0.5 0.5
vt 0.5000001 0
vt 0.8535535 0.1464467
vt 0.8535535 0.1464467
vt 0.5 0.5
vt 1 0.5
vt 0.8535534 0.8535534
usemtl Gold
f 3/3/3 2/2/2 1/1/1
f 4/4/4 3/3/3 1/1/1
f 1/1/1 2/2/2 5/5/5
f 2/2/2 6/6/6 5/5/5
f 9/9/9 8/8/8 7/7/7
f 10/10/10 9/9/9 7/7/7
f 13/13/13 12/12/12 11/11/11
f 14/14/14 13/13/13 11/11/11
f 17/17/17 16/16/16 15/15/15
f 18/18/18 17/17/17 15/15/15
f 21/21/21 20/20/20 19/19/19
f 22/22/22 21/21/21 19/19/19
f 23/23/23 21/21/21 22/22/22
f 24/24/24 23/23/23 22/22/22
f 27/27/27 26/26/26 25/25/25
f 28/28/28 27/27/27 25/25/25
f 31/31/31 30/30/30 29/29/29
f 29/29/29 32/32/32 31/31/31
f 32/32/32 33/33/33 31/31/31
f 32/32/32 34/34/34 33/33/33
f 34/34/34 35/35/35 33/33/33
f 34/34/34 36/36/36 35/35/35
f 39/39/39 38/38/38 37/37/37
f 40/40/40 39/39/39 37/37/37
f 41/41/41 39/39/39 40/40/40
f 42/42/42 41/41/41 40/40/40
f 43/43/43 41/41/41 42/42/42
f 44/44/44 43/43/43 42/42/42
f 45/45/45 43/43/43 44/44/44
f 46/46/46 45/45/45 44/44/44
f 47/47/47 45/45/45 46/46/46
f 48/48/48 47/47/47 46/46/46
f 49/49/49 47/47/47 48/48/48
f 50/50/50 49/49/49 48/48/48
f 51/51/51 49/49/49 50/50/50
f 52/52/52 51/51/51 50/50/50
f 38/38/38 51/51/51 52/52/52
f 37/37/37 38/38/38 52/52/52
f 55/55/55 54/54/54 53/53/53
f 56/56/56 55/55/55 53/53/53
f 53/53/53 54/54/54 57/57/57
f 54/54/54 58/58/58 57/57/57
f 61/61/61 60/60/60 59/59/59
f 62/62/62 61/61/61 59/59/59
f 63/63/63 61/61/61 62/62/62
f 64/64/64 63/63/63 62/62/62
f 67/67/67 66/66/66 65/65/65
f 68/68/68 67/67/67 65/65/65
f 69/69/69 67/67/67 68/68/68
f 70/70/70 69/69/69 68/68/68
f 73/73/73 72/72/72 71/71/71
f 74/74/74 73/73/73 71/71/71
f 75/75/75 73/73/73 74/74/74
f 76/76/76 75/75/75 74/74/74
f 79/79/79 78/78/78 77/77/77
f 80/80/80 79/79/79 77/77/77
f 77/77/77 78/78/78 81/81/81
f 78/78/78 82/82/82 81/81/81
f 85/85/85 84/84/84 83/83/83
f 86/86/86 85/85/85 83/83/83
f 87/87/87 85/85/85 86/86/86
f 88/88/88 87/87/87 86/86/86
f 91/91/91 90/90/90 89/89/89
f 92/92/92 91/91/91 89/89/89
f 91/91/91 93/93/93 90/90/90
f 93/93/93 94/94/94 90/90/90
f 90/90/90 94/94/94 95/95/95
f 94/94/94 96/96/96 95/95/95
f 97/97/97 93/93/93 91/91/91
f 98/98/98 97/97/97 91/91/91
f 101/101/101 100/100/100 99/99/99
f 102/102/102 101/101/101 99/99/99
f 103/103/103 101/101/101 102/102/102
f 104/104/104 103/103/103 102/102/102
f 103/103/103 105/105/105 101/101/101
f 105/105/105 106/106/106 101/101/101
f 109/109/109 108/108/108 107/107/107
f 110/110/110 109/109/109 107/107/107
f 109/109/109 111/111/111 108/108/108
f 111/111/111 112/112/112 108/108/108
f 115/115/115 114/114/114 113/113/113
f 116/116/116 115/115/115 113/113/113
f 117/117/117 115/115/115 116/116/116
f 118/118/118 117/117/117 116/116/116
f 113/113/113 114/114/114 119/119/119
f 114/114/114 120/120/120 119/119/119
f 123/123/123 122/122/122 121/121/121
f 124/124/124 123/123/123 121/121/121
f 125/125/125 123/123/123 124/124/124
f 126/126/126 125/125/125 124/124/124
f 127/127/127 125/125/125 126/126/126
f 128/128/128 127/127/127 126/126/126
f 129/129/129 127/127/127 128/128/128
f 130/130/130 129/129/129 128/128/128
f 131/131/131 129/129/129 130/130/130
f 132/132/132 131/131/131 130/130/130
f 133/133/133 131/131/131 132/132/132
f 134/134/134 133/133/133 132/132/132
f 135/135/135 133/133/133 134/134/134
f 136/136/136 135/135/135 134/134/134
f 122/122/122 135/135/135 136/136/136
f 121/121/121 122/122/122 136/136/136
f 139/139/139 138/138/138 137/137/137
f 140/140/140 139/139/139 137/137/137
f 137/137/137 138/138/138 141/141/141
f 138/138/138 142/142/142 141/141/141
f 139/139/139 143/143/143 138/138/138
f 143/143/143 144/144/144 138/138/138
f 138/138/138 144/144/144 142/142/142
f 144/144/144 145/145/145 142/142/142
f 148/148/148 147/147/147 146/146/146
f 149/149/149 148/148/148 146/146/146
f 150/150/150 148/148/148 149/149/149
f 151/151/151 150/150/150 149/149/149
f 148/148/148 152/152/152 147/147/147
f 152/152/152 153/153/153 147/147/147
f 154/154/154 152/152/152 148/148/148
f 150/150/150 154/154/154 148/148/148
f 157/157/157 156/156/156 155/155/155
f 158/158/158 157/157/157 155/155/155
f 159/159/159 157/157/157 158/158/158
f 160/160/160 159/159/159 158/158/158
f 157/157/157 161/161/161 156/156/156
f 161/161/161 162/162/162 156/156/156
f 163/163/163 161/161/161 157/157/157
f 159/159/159 163/163/163 157/157/157
f 166/166/166 165/165/165 164/164/164
f 167/167/167 166/166/166 164/164/164
f 168/168/168 166/166/166 167/167/167
f 169/169/169 168/168/168 167/167/167
f 166/166/166 170/170/170 165/165/165
f 170/170/170 171/171/171 165/165/165
f 172/172/172 170/170/170 166/166/166
f 168/168/168 172/172/172 166/166/166
f 175/175/175 174/174/174 173/173/173
f 173/173/173 174/174/174 176/176/176
f 179/179/179 178/178/178 177/177/177
f 180/180/180 178/178/178 179/179/179
f 183/183/183 182/182/182 181/181/181
f 184/184/184 182/182/182 183/183/183
f 187/187/187 186/186/186 185/185/185
f 188/188/188 186/186/186 187/187/187
